<mxfile host="app.diagrams.net" modified="2021-12-12T02:42:11.898Z" agent="5.0 (Macintosh; Intel Mac OS X 10_15_7) AppleWebKit/537.36 (KHTML, like Gecko) Chrome/96.0.4664.93 Safari/537.36" etag="cFG2YLW0XomAOKRYTCrJ" version="15.8.6" type="github">
  <diagram id="gS-pdmRVgv5sBDelOKFj" name="Page-1">
    <mxGraphModel dx="1666" dy="801" grid="1" gridSize="10" guides="1" tooltips="1" connect="1" arrows="1" fold="1" page="1" pageScale="1" pageWidth="850" pageHeight="1100" math="0" shadow="0">
      <root>
        <mxCell id="0" />
        <mxCell id="1" parent="0" />
        <mxCell id="vCPlBNf2952G7V-WbvkT-1" value="Itheum Domain" style="swimlane;" vertex="1" parent="1">
          <mxGeometry x="20" y="80" width="470" height="410" as="geometry" />
        </mxCell>
        <mxCell id="vCPlBNf2952G7V-WbvkT-6" value="Data DEX DApp" style="swimlane;" vertex="1" parent="vCPlBNf2952G7V-WbvkT-1">
          <mxGeometry x="40" y="60" width="370" height="130" as="geometry" />
        </mxCell>
        <mxCell id="vCPlBNf2952G7V-WbvkT-40" value="" style="edgeStyle=orthogonalEdgeStyle;rounded=0;orthogonalLoop=1;jettySize=auto;html=1;fontSize=10;" edge="1" parent="vCPlBNf2952G7V-WbvkT-6" source="vCPlBNf2952G7V-WbvkT-14" target="vCPlBNf2952G7V-WbvkT-39">
          <mxGeometry relative="1" as="geometry" />
        </mxCell>
        <mxCell id="vCPlBNf2952G7V-WbvkT-14" value="&lt;font style=&quot;font-size: 12px&quot;&gt;Data Coaltions&lt;/font&gt;" style="rounded=0;whiteSpace=wrap;html=1;fontSize=18;" vertex="1" parent="vCPlBNf2952G7V-WbvkT-6">
          <mxGeometry x="130" y="50" width="90" height="50" as="geometry" />
        </mxCell>
        <mxCell id="vCPlBNf2952G7V-WbvkT-22" value="" style="edgeStyle=orthogonalEdgeStyle;rounded=0;orthogonalLoop=1;jettySize=auto;html=1;fontSize=12;" edge="1" parent="vCPlBNf2952G7V-WbvkT-6" source="vCPlBNf2952G7V-WbvkT-21" target="vCPlBNf2952G7V-WbvkT-14">
          <mxGeometry relative="1" as="geometry" />
        </mxCell>
        <mxCell id="vCPlBNf2952G7V-WbvkT-21" value="&lt;font style=&quot;font-size: 12px&quot;&gt;Peer-to-Peer DataPacks&lt;/font&gt;" style="rounded=0;whiteSpace=wrap;html=1;fontSize=18;" vertex="1" parent="vCPlBNf2952G7V-WbvkT-6">
          <mxGeometry x="20" y="50" width="80" height="50" as="geometry" />
        </mxCell>
        <mxCell id="vCPlBNf2952G7V-WbvkT-39" value="&lt;font style=&quot;font-size: 12px&quot;&gt;Trusted Computation Franework&lt;/font&gt;" style="rounded=0;whiteSpace=wrap;html=1;fontSize=18;" vertex="1" parent="vCPlBNf2952G7V-WbvkT-6">
          <mxGeometry x="240" y="50" width="120" height="50" as="geometry" />
        </mxCell>
        <mxCell id="vCPlBNf2952G7V-WbvkT-7" value="Smart Contract Protocol" style="rounded=0;whiteSpace=wrap;html=1;" vertex="1" parent="vCPlBNf2952G7V-WbvkT-1">
          <mxGeometry x="40" y="190" width="370" height="50" as="geometry" />
        </mxCell>
        <mxCell id="vCPlBNf2952G7V-WbvkT-9" value="Node Pool" style="rounded=0;whiteSpace=wrap;html=1;" vertex="1" parent="vCPlBNf2952G7V-WbvkT-1">
          <mxGeometry x="40" y="240" width="240" height="90" as="geometry" />
        </mxCell>
        <mxCell id="vCPlBNf2952G7V-WbvkT-23" value="&lt;font style=&quot;font-size: 10px&quot;&gt;PlatON Data Node&lt;/font&gt;" style="shape=cylinder3;whiteSpace=wrap;html=1;boundedLbl=1;backgroundOutline=1;size=15;fontSize=12;" vertex="1" parent="vCPlBNf2952G7V-WbvkT-1">
          <mxGeometry x="240" y="250" width="50" height="75" as="geometry" />
        </mxCell>
        <mxCell id="vCPlBNf2952G7V-WbvkT-30" style="edgeStyle=orthogonalEdgeStyle;rounded=0;orthogonalLoop=1;jettySize=auto;html=1;exitX=0;exitY=0.5;exitDx=0;exitDy=0;entryX=0;entryY=0;entryDx=0;entryDy=48.75;entryPerimeter=0;fontSize=10;" edge="1" parent="vCPlBNf2952G7V-WbvkT-1" source="vCPlBNf2952G7V-WbvkT-21" target="vCPlBNf2952G7V-WbvkT-23">
          <mxGeometry relative="1" as="geometry">
            <Array as="points">
              <mxPoint x="20" y="135" />
              <mxPoint x="20" y="299" />
            </Array>
          </mxGeometry>
        </mxCell>
        <mxCell id="vCPlBNf2952G7V-WbvkT-31" value="upload CSV data" style="edgeLabel;html=1;align=center;verticalAlign=middle;resizable=0;points=[];fontSize=10;" vertex="1" connectable="0" parent="vCPlBNf2952G7V-WbvkT-30">
          <mxGeometry x="0.193" relative="1" as="geometry">
            <mxPoint as="offset" />
          </mxGeometry>
        </mxCell>
        <mxCell id="vCPlBNf2952G7V-WbvkT-28" value="Advertise Privacy-Preserving Jobs" style="shape=step;perimeter=stepPerimeter;whiteSpace=wrap;html=1;fixedSize=1;fontSize=10;" vertex="1" parent="vCPlBNf2952G7V-WbvkT-1">
          <mxGeometry x="370" y="250" width="120" height="80" as="geometry" />
        </mxCell>
        <mxCell id="vCPlBNf2952G7V-WbvkT-34" style="edgeStyle=orthogonalEdgeStyle;rounded=0;orthogonalLoop=1;jettySize=auto;html=1;exitX=1;exitY=0.5;exitDx=0;exitDy=0;exitPerimeter=0;entryX=0;entryY=0.5;entryDx=0;entryDy=0;fontSize=10;" edge="1" parent="vCPlBNf2952G7V-WbvkT-1" source="vCPlBNf2952G7V-WbvkT-23" target="vCPlBNf2952G7V-WbvkT-28">
          <mxGeometry relative="1" as="geometry">
            <Array as="points">
              <mxPoint x="318" y="288" />
              <mxPoint x="318" y="380" />
              <mxPoint x="330" y="380" />
              <mxPoint x="330" y="290" />
            </Array>
          </mxGeometry>
        </mxCell>
        <mxCell id="vCPlBNf2952G7V-WbvkT-35" value="&amp;nbsp;Flag Data is Ready in Node &lt;br&gt;(Secure Computing on Data) can begin" style="edgeLabel;html=1;align=center;verticalAlign=middle;resizable=0;points=[];fontSize=10;" vertex="1" connectable="0" parent="vCPlBNf2952G7V-WbvkT-34">
          <mxGeometry x="-0.0065" y="1" relative="1" as="geometry">
            <mxPoint x="1" as="offset" />
          </mxGeometry>
        </mxCell>
        <mxCell id="vCPlBNf2952G7V-WbvkT-42" style="edgeStyle=orthogonalEdgeStyle;rounded=0;orthogonalLoop=1;jettySize=auto;html=1;exitX=1;exitY=0.5;exitDx=0;exitDy=0;entryX=0.575;entryY=-0.037;entryDx=0;entryDy=0;entryPerimeter=0;fontSize=10;" edge="1" parent="vCPlBNf2952G7V-WbvkT-1" source="vCPlBNf2952G7V-WbvkT-39" target="vCPlBNf2952G7V-WbvkT-28">
          <mxGeometry relative="1" as="geometry" />
        </mxCell>
        <mxCell id="vCPlBNf2952G7V-WbvkT-43" value="Request Job" style="edgeLabel;html=1;align=center;verticalAlign=middle;resizable=0;points=[];fontSize=10;" vertex="1" connectable="0" parent="vCPlBNf2952G7V-WbvkT-42">
          <mxGeometry x="-0.2982" y="-1" relative="1" as="geometry">
            <mxPoint as="offset" />
          </mxGeometry>
        </mxCell>
        <mxCell id="vCPlBNf2952G7V-WbvkT-5" value="PlatON Domain" style="swimlane;" vertex="1" parent="1">
          <mxGeometry x="520" y="90" width="320" height="400" as="geometry" />
        </mxCell>
        <mxCell id="vCPlBNf2952G7V-WbvkT-2" value="PlatON Computation Network (Metis)" style="swimlane;" vertex="1" parent="vCPlBNf2952G7V-WbvkT-5">
          <mxGeometry x="40" y="115" width="270" height="170" as="geometry" />
        </mxCell>
        <mxCell id="vCPlBNf2952G7V-WbvkT-25" value="&lt;font style=&quot;font-size: 10px&quot;&gt;&amp;nbsp;Computing Nodes&lt;/font&gt;" style="shape=cylinder3;whiteSpace=wrap;html=1;boundedLbl=1;backgroundOutline=1;size=15;fontSize=12;" vertex="1" parent="vCPlBNf2952G7V-WbvkT-2">
          <mxGeometry x="30" y="50" width="50" height="75" as="geometry" />
        </mxCell>
        <mxCell id="vCPlBNf2952G7V-WbvkT-26" value="&lt;font style=&quot;font-size: 10px&quot;&gt;&amp;nbsp;Computing Nodes&lt;/font&gt;" style="shape=cylinder3;whiteSpace=wrap;html=1;boundedLbl=1;backgroundOutline=1;size=15;fontSize=12;" vertex="1" parent="vCPlBNf2952G7V-WbvkT-2">
          <mxGeometry x="110" y="50" width="50" height="75" as="geometry" />
        </mxCell>
        <mxCell id="vCPlBNf2952G7V-WbvkT-27" value="&lt;font style=&quot;font-size: 10px&quot;&gt;&amp;nbsp;Computing Nodes&lt;/font&gt;" style="shape=cylinder3;whiteSpace=wrap;html=1;boundedLbl=1;backgroundOutline=1;size=15;fontSize=12;" vertex="1" parent="vCPlBNf2952G7V-WbvkT-2">
          <mxGeometry x="190" y="50" width="50" height="75" as="geometry" />
        </mxCell>
        <mxCell id="vCPlBNf2952G7V-WbvkT-13" style="edgeStyle=orthogonalEdgeStyle;rounded=0;orthogonalLoop=1;jettySize=auto;html=1;fontSize=18;" edge="1" parent="1" source="vCPlBNf2952G7V-WbvkT-12" target="vCPlBNf2952G7V-WbvkT-9">
          <mxGeometry relative="1" as="geometry" />
        </mxCell>
        <mxCell id="vCPlBNf2952G7V-WbvkT-12" value="&lt;h1&gt;&lt;font style=&quot;font-size: 18px&quot;&gt;Node Pool&lt;/font&gt;&lt;/h1&gt;&lt;p&gt;A pool of nodes under Itheum&#39;s domain that can be used to coordinate cross-chain integrations and bespoke features not possible via smart-contract and layer 1s infra APIs.&lt;br&gt;&lt;br&gt;For example; it will host the PlatON Data Nodes that we can use to coordinate privacy preserving compute features provided by PlatON&lt;/p&gt;" style="text;html=1;strokeColor=none;fillColor=none;spacing=5;spacingTop=-20;whiteSpace=wrap;overflow=hidden;rounded=0;" vertex="1" parent="1">
          <mxGeometry x="70" y="510" width="360" height="160" as="geometry" />
        </mxCell>
        <mxCell id="vCPlBNf2952G7V-WbvkT-37" value="" style="endArrow=classic;html=1;rounded=0;fontSize=10;entryX=0.5;entryY=1;entryDx=0;entryDy=0;exitX=1;exitY=0.5;exitDx=0;exitDy=0;" edge="1" parent="1" source="vCPlBNf2952G7V-WbvkT-28" target="vCPlBNf2952G7V-WbvkT-2">
          <mxGeometry width="50" height="50" relative="1" as="geometry">
            <mxPoint x="400" y="410" as="sourcePoint" />
            <mxPoint x="450" y="360" as="targetPoint" />
            <Array as="points">
              <mxPoint x="520" y="430" />
              <mxPoint x="610" y="430" />
            </Array>
          </mxGeometry>
        </mxCell>
        <mxCell id="vCPlBNf2952G7V-WbvkT-38" value="Broadcast Job and coordinate work" style="edgeLabel;html=1;align=center;verticalAlign=middle;resizable=0;points=[];fontSize=10;" vertex="1" connectable="0" parent="vCPlBNf2952G7V-WbvkT-37">
          <mxGeometry x="0.019" y="1" relative="1" as="geometry">
            <mxPoint as="offset" />
          </mxGeometry>
        </mxCell>
        <mxCell id="vCPlBNf2952G7V-WbvkT-44" style="edgeStyle=orthogonalEdgeStyle;rounded=0;orthogonalLoop=1;jettySize=auto;html=1;exitX=0;exitY=0.5;exitDx=0;exitDy=0;fontSize=10;" edge="1" parent="1" source="vCPlBNf2952G7V-WbvkT-2" target="vCPlBNf2952G7V-WbvkT-28">
          <mxGeometry relative="1" as="geometry" />
        </mxCell>
        <mxCell id="vCPlBNf2952G7V-WbvkT-45" value="Results" style="edgeLabel;html=1;align=center;verticalAlign=middle;resizable=0;points=[];fontSize=10;" vertex="1" connectable="0" parent="vCPlBNf2952G7V-WbvkT-44">
          <mxGeometry x="-0.3538" relative="1" as="geometry">
            <mxPoint as="offset" />
          </mxGeometry>
        </mxCell>
      </root>
    </mxGraphModel>
  </diagram>
</mxfile>
